<svg width="10" height="17" viewBox="0 0 10 17" fill="none" xmlns="http://www.w3.org/2000/svg">
<path d="M4.09091 15H3.18182C2.92424 15 2.70848 14.904 2.53455 14.712C2.36061 14.52 2.27333 14.2827 2.27273 14C2.27212 13.7173 2.35939 13.48 2.53455 13.288C2.7097 13.096 2.92545 13 3.18182 13H4.09091V10.9C2.89394 10.6667 1.91273 10.0373 1.14727 9.012C0.381819 7.98667 -0.000605341 6.79933 7.19217e-07 5.45C7.19217e-07 3.93333 0.488788 2.646 1.46636 1.588C2.44394 0.53 3.62182 0.000667295 5 6.28931e-07C6.37818 -0.000666038 7.55636 0.528667 8.53454 1.588C9.51273 2.64733 10.0012 3.93467 10 5.45C10 6.8 9.61727 7.98767 8.85182 9.013C8.08636 10.0383 7.10545 10.6673 5.90909 10.9V13H6.81818C7.07576 13 7.29182 13.096 7.46636 13.288C7.64091 13.48 7.72788 13.7173 7.72727 14C7.72667 14.2827 7.63939 14.5203 7.46545 14.713C7.29151 14.9057 7.07576 15.0013 6.81818 15H5.90909V16C5.90909 16.2833 5.82182 16.521 5.64727 16.713C5.47273 16.905 5.25697 17.0007 5 17C4.74303 16.9993 4.52727 16.9033 4.35273 16.712C4.17818 16.5207 4.09091 16.2833 4.09091 16V15ZM5 9C5.87879 9 6.62879 8.65833 7.25 7.975C7.87121 7.29167 8.18182 6.46667 8.18182 5.5C8.18182 4.53333 7.87121 3.70833 7.25 3.025C6.62879 2.34167 5.87879 2 5 2C4.12121 2 3.37121 2.34167 2.75 3.025C2.12879 3.70833 1.81818 4.53333 1.81818 5.5C1.81818 6.46667 2.12879 7.29167 2.75 7.975C3.37121 8.65833 4.12121 9 5 9Z" fill="#FF70EC"/>
</svg>
