<svg width="16" height="18" viewBox="0 0 16 18" fill="none" xmlns="http://www.w3.org/2000/svg">
<path d="M8 8.62016C6.9 8.62016 5.95833 8.19813 5.175 7.35407C4.39167 6.51001 4 5.49535 4 4.31008C4 3.12481 4.39167 2.11014 5.175 1.26609C5.95833 0.422029 6.9 0 8 0C9.1 0 10.0417 0.422029 10.825 1.26609C11.6083 2.11014 12 3.12481 12 4.31008C12 5.49535 11.6083 6.51001 10.825 7.35407C10.0417 8.19813 9.1 8.62016 8 8.62016ZM0 17.2403V14.2233C0 13.6127 0.146 13.0516 0.438 12.5402C0.73 12.0287 1.11733 11.6379 1.6 11.3678C2.63333 10.8111 3.68333 10.3938 4.75 10.1158C5.81667 9.83775 6.9 9.69839 8 9.69767C9.1 9.69696 10.1833 9.83632 11.25 10.1158C12.3167 10.3952 13.3667 10.8125 14.4 11.3678C14.8833 11.6372 15.271 12.028 15.563 12.5402C15.855 13.0524 16.0007 13.6134 16 14.2233V17.2403H0Z" fill="black"/>
</svg>
